<?xml version="1.0" encoding="utf-8"?>
<!-- Generator: Adobe Illustrator 23.1.0, SVG Export Plug-In . SVG Version: 6.00 Build 0)  -->
<svg version="1.1" id="Layer_1" focusable="false" xmlns="http://www.w3.org/2000/svg" xmlns:xlink="http://www.w3.org/1999/xlink"
	 x="0px" y="0px" viewBox="0 0 448 512" style="enable-background:new 0 0 448 512;" xml:space="preserve">
<path d="M400,32H48C21.5,32,0,53.5,0,80v352c0,26.5,21.5,48,48,48h352c26.5,0,48-21.5,48-48V80C448,53.5,426.5,32,400,32z M400,432
	H48V80h352V432z M364.1,190.3L191.5,361.5c-4.7,4.7-12.3,4.6-17-0.1l-90.8-91.5c-4.7-4.7-4.6-12.3,0.1-17l22.7-22.5
	c4.7-4.7,12.3-4.6,17,0.1l59.8,60.3l141.4-140.2c4.7-4.7,12.3-4.6,17,0.1l22.5,22.7C368.9,178,368.8,185.6,364.1,190.3L364.1,190.3z
	"/>
</svg>
