<?xml version="1.0" encoding="utf-8"?>
<!-- Generator: Adobe Illustrator 23.1.0, SVG Export Plug-In . SVG Version: 6.00 Build 0)  -->
<svg version="1.1" id="Layer_1" focusable="false" xmlns="http://www.w3.org/2000/svg" xmlns:xlink="http://www.w3.org/1999/xlink"
	 x="0px" y="0px" viewBox="0 0 496 512" style="enable-background:new 0 0 496 512;" xml:space="preserve">
<style type="text/css">
	.st0{fill:url(#SVGID_1_);}
</style>
<linearGradient id="SVGID_1_" gradientUnits="userSpaceOnUse" x1="248" y1="10" x2="248" y2="506" gradientTransform="matrix(1 0 0 -1 0 514)">
	<stop  offset="3.090118e-07" style="stop-color:#FF6A88"/>
	<stop  offset="1" style="stop-color:#FF9A8B"/>
</linearGradient>
<path class="st0" d="M248,8C111,8,0,119,0,256s111,248,248,248s248-111,248-248S385,8,248,8z M248,456c-110.3,0-200-89.7-200-200
	S137.7,56,248,56s200,89.7,200,200S358.3,456,248,456z M353.6,304.6c-25.9,8.3-64.4,13.1-105.6,13.1s-79.6-4.8-105.6-13.1
	c-9.8-3.1-19.4,5.3-17.7,15.3c7.9,47.1,71.3,80,123.3,80s115.3-32.9,123.3-80C372.9,310.1,363.6,301.5,353.6,304.6L353.6,304.6z
	 M117.7,231.7c3.5,1.1,7.4-0.5,9.3-3.7l9.5-17c7.7-13.7,19.2-21.6,31.5-21.6s23.8,7.9,31.5,21.6l9.5,17c2.1,3.7,6.2,4.7,9.3,3.7
	c3.6-1.1,6-4.5,5.7-8.3c-3.3-42.1-32.2-71.4-56-71.4s-52.7,29.3-56,71.4C111.7,227.1,114.1,230.6,117.7,231.7L117.7,231.7z
	 M277.7,231.7c3.5,1.1,7.4-0.5,9.3-3.7l9.5-17c7.7-13.7,19.2-21.6,31.5-21.6s23.8,7.9,31.5,21.6l9.5,17c2.1,3.7,6.2,4.7,9.3,3.7
	c3.6-1.1,6-4.5,5.7-8.3c-3.3-42.1-32.2-71.4-56-71.4s-52.7,29.3-56,71.4C271.7,227.1,274.1,230.6,277.7,231.7L277.7,231.7z"/>
</svg>
