<?xml version="1.0" encoding="utf-8"?>
<!-- Generator: Adobe Illustrator 23.1.0, SVG Export Plug-In . SVG Version: 6.00 Build 0)  -->
<svg version="1.1" id="Layer_1" focusable="false" xmlns="http://www.w3.org/2000/svg" xmlns:xlink="http://www.w3.org/1999/xlink"
	 x="0px" y="0px" viewBox="0 0 496 512" style="enable-background:new 0 0 496 512;" xml:space="preserve">
<style type="text/css">
	.st0{fill:url(#SVGID_1_);}
</style>
<linearGradient id="SVGID_1_" gradientUnits="userSpaceOnUse" x1="248" y1="782" x2="248" y2="286" gradientTransform="matrix(1 0 0 1 0 -278)">
	<stop  offset="0" style="stop-color:#FF6A88"/>
	<stop  offset="1" style="stop-color:#FF9A8B"/>
</linearGradient>
<path class="st0" d="M353.6,304.6c-25.9,8.3-64.4,13.1-105.6,13.1s-79.6-4.8-105.6-13.1c-9.8-3.1-19.4,5.3-17.7,15.3
	c7.9,47.2,71.3,80,123.3,80s115.3-32.9,123.3-80C372.9,310.1,363.6,301.5,353.6,304.6L353.6,304.6z M200.8,255.7
	c4.5,1.2,9.2-1.5,10.5-6l19.4-69.9c5.6-20.3-7.4-41.1-28.8-44.5c-18.6-3-36.4,9.8-41.5,27.9l-2,7.1l-7.1-1.9
	c-18.2-4.7-38.2,4.3-44.9,22c-7.7,20.2,3.8,41.9,24.2,47.2L200.8,255.7L200.8,255.7z M389.6,190.4c-6.7-17.6-26.7-26.7-44.9-22
	l-7.1,1.9l-2-7.1c-5-18.1-22.8-30.9-41.5-27.9c-21.4,3.4-34.4,24.2-28.8,44.5l19.4,69.9c1.2,4.5,5.9,7.2,10.5,6l70.2-18.2
	C385.8,232.2,397.3,210.6,389.6,190.4L389.6,190.4z M248,8C111,8,0,119,0,256s111,248,248,248s248-111,248-248S385,8,248,8z
	 M248,456c-110.3,0-200-89.7-200-200S137.7,56,248,56s200,89.7,200,200S358.3,456,248,456z"/>
</svg>
