<?xml version="1.0" encoding="utf-8"?>
<!-- Generator: Adobe Illustrator 23.1.0, SVG Export Plug-In . SVG Version: 6.00 Build 0)  -->
<svg version="1.1" id="Layer_1" focusable="false" xmlns="http://www.w3.org/2000/svg" xmlns:xlink="http://www.w3.org/1999/xlink"
	 x="0px" y="0px" viewBox="0 0 496 512" style="enable-background:new 0 0 496 512;" xml:space="preserve">
<style type="text/css">
	.st0{fill:url(#SVGID_1_);}
</style>
<linearGradient id="SVGID_1_" gradientUnits="userSpaceOnUse" x1="248" y1="504" x2="248" y2="8">
	<stop  offset="2.557339e-07" style="stop-color:#FF6A88"/>
	<stop  offset="1" style="stop-color:#FF9A8B"/>
</linearGradient>
<path class="st0" d="M248,8C111,8,0,119,0,256s111,248,248,248s248-111,248-248S385,8,248,8z M389.4,397.4
	c-37.8,37.8-88,58.6-141.4,58.6s-103.6-20.8-141.4-58.6S48,309.4,48,256s20.8-103.6,58.6-141.4S194.6,56,248,56
	s103.6,20.8,141.4,58.6S448,202.6,448,256S427.2,359.6,389.4,397.4z M328,152c-23.8,0-52.7,29.3-56,71.4
	c-0.7,8.6,10.8,11.9,14.9,4.5l9.5-17c7.7-13.7,19.2-21.6,31.5-21.6s23.8,7.9,31.5,21.6l9.5,17c4.1,7.4,15.6,4,14.9-4.5
	C380.7,181.3,351.8,152,328,152z M127,227.9l9.5-17c7.7-13.7,19.2-21.6,31.5-21.6s23.8,7.9,31.5,21.6l9.5,17
	c4.1,7.4,15.6,4,14.9-4.5c-3.3-42.1-32.2-71.4-56-71.4s-52.7,29.3-56,71.4C111.3,231.9,122.8,235.3,127,227.9z M362.4,288H133.6
	c-8.2,0-14.5,7-13.5,15c7.5,59.2,58.9,105,121.1,105h13.6c62.2,0,113.6-45.8,121.1-105C376.9,295,370.6,288,362.4,288L362.4,288z"/>
</svg>
