<?xml version="1.0" encoding="utf-8"?>
<!-- Generator: Adobe Illustrator 23.1.0, SVG Export Plug-In . SVG Version: 6.00 Build 0)  -->
<svg version="1.1" id="Layer_1" focusable="false" xmlns="http://www.w3.org/2000/svg" xmlns:xlink="http://www.w3.org/1999/xlink"
	 x="0px" y="0px" viewBox="0 0 512 512" style="enable-background:new 0 0 512 512;" xml:space="preserve">
<path d="M48,48C21.5,48,0,69.5,0,96s21.5,48,48,48s48-21.5,48-48S74.5,48,48,48z M48,208c-26.5,0-48,21.5-48,48s21.5,48,48,48
	s48-21.5,48-48S74.5,208,48,208z M48,368c-26.5,0-48,21.5-48,48s21.5,48,48,48s48-21.5,48-48S74.5,368,48,368z M496,384H176
	c-8.8,0-16,7.2-16,16v32c0,8.8,7.2,16,16,16h320c8.8,0,16-7.2,16-16v-32C512,391.2,504.8,384,496,384z M496,64H176
	c-8.8,0-16,7.2-16,16v32c0,8.8,7.2,16,16,16h320c8.8,0,16-7.2,16-16V80C512,71.2,504.8,64,496,64z M496,224H176c-8.8,0-16,7.2-16,16
	v32c0,8.8,7.2,16,16,16h320c8.8,0,16-7.2,16-16v-32C512,231.2,504.8,224,496,224z"/>
</svg>
