<?xml version="1.0" encoding="utf-8"?>
<!-- Generator: Adobe Illustrator 23.1.0, SVG Export Plug-In . SVG Version: 6.00 Build 0)  -->
<svg version="1.1" id="Layer_1" focusable="false" xmlns="http://www.w3.org/2000/svg" xmlns:xlink="http://www.w3.org/1999/xlink"
	 x="0px" y="0px" viewBox="0 0 576 512" style="enable-background:new 0 0 576 512;" xml:space="preserve">
<style type="text/css">
	.st0{fill:#FFFFFF;}
</style>
<path class="st0" d="M288,0c-69.6,0-126,56.4-126,126c0,56.3,82.4,158.8,113.9,196c6.4,7.5,17.8,7.5,24.2,0
	C331.6,284.8,414,182.3,414,126C414,56.4,357.6,0,288,0z M288,168c-23.2,0-42-18.8-42-42s18.8-42,42-42s42,18.8,42,42
	S311.2,168,288,168z M20.1,215.9C8,220.8,0,232.6,0,245.7V496c0,11.3,11.4,19.1,21.9,14.9L160,448V214.9
	c-8.8-16-16.1-31.5-21.3-46.4L20.1,215.9z M288,359.7c-14.1,0-27.4-6.2-36.5-17c-19.7-23.2-40.6-49.6-59.5-76.7v182l192,64V266
	c-18.9,27.1-39.8,53.5-59.5,76.7C315.4,353.5,302.1,359.7,288,359.7z M554.1,161.2L416,224v288l139.9-56
	c12.2-4.9,20.1-16.6,20.1-29.7V176C576,164.7,564.6,157,554.1,161.2L554.1,161.2z"/>
</svg>
