<?xml version="1.0" encoding="utf-8"?>
<!-- Generator: Adobe Illustrator 23.1.0, SVG Export Plug-In . SVG Version: 6.00 Build 0)  -->
<svg version="1.1" id="Layer_1" focusable="false" xmlns="http://www.w3.org/2000/svg" xmlns:xlink="http://www.w3.org/1999/xlink"
	 x="0px" y="0px" viewBox="0 0 496 512" style="enable-background:new 0 0 496 512;" xml:space="preserve">
<style type="text/css">
	.st0{fill:url(#SVGID_1_);}
</style>
<linearGradient id="SVGID_1_" gradientUnits="userSpaceOnUse" x1="248" y1="504" x2="248" y2="8">
	<stop  offset="0" style="stop-color:#FF6A88"/>
	<stop  offset="1" style="stop-color:#FF9A8B"/>
</linearGradient>
<path class="st0" d="M248,8C111,8,0,119,0,256s111,248,248,248s248-111,248-248S385,8,248,8z M392,394.4V280c0-13.2-10.8-24-24-24
	s-24,10.8-24,24v151.4C315.5,447,282.8,456,248,456s-67.5-9-96-24.6V280c0-13.2-10.8-24-24-24s-24,10.8-24,24v114.4
	c-34.6-36-56-84.7-56-138.4c0-110.3,89.7-200,200-200s200,89.7,200,200C448,309.7,426.6,358.5,392,394.4z M205.8,234.5
	c4.4-2.4,6.9-7.4,6.1-12.4c-4-25.2-34.2-42.1-59.8-42.1s-55.9,16.9-59.8,42.1c-0.8,5,1.7,10,6.1,12.4s9.9,1.8,13.7-1.6l9.5-8.5
	c14.8-13.2,46.2-13.2,61,0l9.5,8.5C194.6,235.2,200,237.7,205.8,234.5z M344,180c-25.7,0-55.9,16.9-59.8,42.1
	c-0.8,5,1.7,10,6.1,12.4c4.5,2.4,9.9,1.8,13.7-1.6l9.5-8.5c14.8-13.2,46.2-13.2,61,0l9.5,8.5c2.5,2.2,8,4.7,13.7,1.6
	c4.4-2.4,6.9-7.4,6.1-12.4C399.9,196.9,369.7,180,344,180L344,180z M248,272c-30.9,0-56,28.7-56,64s25.1,64,56,64s56-28.7,56-64
	S278.9,272,248,272z"/>
</svg>
