<?xml version="1.0" encoding="utf-8"?>
<!-- Generator: Adobe Illustrator 23.1.0, SVG Export Plug-In . SVG Version: 6.00 Build 0)  -->
<svg version="1.1" id="Layer_1" focusable="false" xmlns="http://www.w3.org/2000/svg" xmlns:xlink="http://www.w3.org/1999/xlink"
	 x="0px" y="0px" viewBox="0 0 448 512" style="enable-background:new 0 0 448 512;" xml:space="preserve">
<style type="text/css">
	.st0{fill:#FF0000;}
</style>
<path class="st0" d="M432,32H312l-9.4-18.7C298.5,5.1,290.2,0,281.1,0H166.8c-9.1,0-17.4,5.1-21.4,13.3L136,32H16
	C7.2,32,0,39.2,0,48v32c0,8.8,7.2,16,16,16h416c8.8,0,16-7.2,16-16V48C448,39.2,440.8,32,432,32z M53.2,467
	c1.6,25.3,22.6,45,47.9,45h245.8c25.3,0,46.3-19.7,47.9-45L416,128H32L53.2,467z"/>
</svg>
